# xmcd
#
# Track frame offsets:
#	150
#	15773
#	46727
#	56911
#	77285
#	98837
#	114213
#	131607
#	148319
#	165978
#	177324
#	193498
#	218984
#	237562
#	249612
#	276381
#	311686
#	328583
#
# Disc length: 4657 seconds
#
# Revision: 1
# Processed by: cddbd v1.5.2PL0 Copyright (c) Steve Scherf et al.
# Submitted via: audiograbber 1.83.01
#
DISCID=01122f12
DTITLE=Amy Winehouse - Frank (Deluxe Edition) CD2
DYEAR=2008
DGENRE=Soul
TTITLE0=Take The Box (Original Demo)
TTITLE1=You Sent Me Flying (Original Demo)
TTITLE2=I Heard Love Is Blind (Original Demo)
TTITLE3=Someone To Watch Over Me (Original Demo)
TTITLE4=What It Is (Original Demo)
TTITLE5=Teach Me Tonight (Hootenanny)
TTITLE6='round Midnight (B-Side)
TTITLE7=Fool's Gold (B-Side)
TTITLE8=Stronger Than Me (Later With Jools Holland)
TTITLE9=I Heard Love Is Blind (Live At The Concorde, Brighton)
TTITLE10=Take The Box (Live At The Concorde, Brighton)
TTITLE11=In My Bed (Live At The Concorde, Brighton)
TTITLE12=Mr Magic (Janice Long Session)
TTITLE13=(There Is) No Greater Love (Janice Long Session)
TTITLE14=Fuck Me Pumps (Mj Cole Mix)
TTITLE15=Take The Box (Seijis Buggin' Mix)
TTITLE16=Stronger Than Me (Harmonic 33 Mix)
TTITLE17=In My Bed (Cj Mix)
EXTD=
EXTT0=
EXTT1=
EXTT2=
EXTT3=
EXTT4=
EXTT5=
EXTT6=
EXTT7=
EXTT8=
EXTT9=
EXTT10=
EXTT11=
EXTT12=
EXTT13=
EXTT14=
EXTT15=
EXTT16=
EXTT17=
PLAYORDER=
